<svg xmlns="http://www.w3.org/2000/svg" width="25" height="25" viewBox="0 0 1000 1000">
  <defs>
    <style>
      .cls-1, .cls-2 {
        fill: #5ba12f;
      }

      .cls-2 {
        fill-rule: evenodd;
      }
    </style>
  </defs>
  <rect id="Retângulo_2" data-name="Retângulo 2" class="cls-1" x="469" y="129" width="72" height="665"/>
  <path id="Forma_1" data-name="Forma 1" class="cls-2" d="M646,335l37-86s-170.5-100.534-329,1c0,0-90.447,85.232-27,186,0,0,32.844,46.947,144,69,0,0,139.263,16.072,121,78,0,0-10.473,37.5-61,40,0,0-89,22.616-198-48l-38,85s117.325,88.88,290,45c0,0,107.424-19.705,119-127,0,0,38.092-123.918-174-159l-61-15s-82.348-23.565-39-84c0,0,26.191-26.2,61-20l48-2S582.528,298.731,646,335Z"/>
</svg>
